PathFileType	4	(X/Y/Z)	marker.trc
DataRate	CameraRate	NumFrames	NumMarkers	Units	OrigDataRate	OrigDataStartFrame	OrigNumFrames
128	128	31	6	m	128	1605	2567
Frame#	Time	US29-1	US29-2	US29-3	US30-1	US30-2	US30-3	
		X1	Y1	Z1	X2	Y2	Z2	X3	Y3	Z3	X4	Y4	Z4	X5	Y5	Z5	X6	Y6	Z6	

1604	12.523437	-0.143740460276604	0.309696882963181	0.134998068213463	-0.113775961101055	0.314260959625244	0.110432095825672	-0.135891765356064	0.331341087818146	0.136948525905609	-0.180816397070885	0.353987604379654	0.0771720930933952	-0.182836577296257	0.342236876487732	0.100538611412048	-0.178097695112228	0.365362018346786	0.100138925015926	
1605	12.53125	-0.138272255659103	0.307130634784698	0.136031955480576	-0.10846071690321	0.312058240175247	0.111328929662704	-0.13071908056736	0.328905433416367	0.137975499033928	-0.176149860024452	0.350769281387329	0.0782876685261726	-0.177905008196831	0.339056462049484	0.101680316030979	-0.17354229092598	0.362144827842712	0.101173795759678	
1606	12.539062	-0.132535576820374	0.304487884044647	0.137025654315948	-0.102778524160385	0.309836655855179	0.112288825213909	-0.125196501612663	0.326435327529907	0.138900727033615	-0.171144783496857	0.347433835268021	0.0792855471372604	-0.17268018424511	0.335809409618378	0.10275112092495	-0.168640732765198	0.35893976688385	0.102223485708237	
1607	12.546875	-0.126395389437675	0.301911950111389	0.13794806599617	-0.0968805104494095	0.307617962360382	0.113081060349941	-0.119468443095684	0.323874324560165	0.139749884605408	-0.165891870856285	0.344121903181076	0.080286867916584	-0.167229697108269	0.332453906536102	0.103740192949772	-0.163515791296959	0.355688244104385	0.103153593838215	
1608	12.554687	-0.120084270834923	0.299272209405899	0.138704225420952	-0.0907015651464462	0.305464953184128	0.113746382296085	-0.113443039357662	0.321411460638046	0.140521168708801	-0.160437896847725	0.340741485357285	0.0811317712068558	-0.161485478281975	0.329151123762131	0.104657150804996	-0.158107310533524	0.352413713932037	0.104052923619747	
1609	12.5625	-0.113489471375942	0.296674847602844	0.139345332980156	-0.0842649340629578	0.303365141153336	0.114368200302124	-0.107154384255409	0.31892603635788	0.141168370842934	-0.154679730534554	0.337381273508072	0.0819673836231232	-0.155487284064293	0.325785428285599	0.105463519692421	-0.152596428990364	0.349096089601517	0.104921162128448	
1610	12.570312	-0.106559574604034	0.294120728969574	0.139952436089516	-0.077532522380352	0.30134242773056	0.114866204559803	-0.100686304271221	0.316481649875641	0.141739904880524	-0.148673728108406	0.334144473075867	0.0826915726065636	-0.149186447262764	0.32252961397171	0.106208138167858	-0.146753251552582	0.345816254615784	0.10563013702631	
1611	12.578125	-0.0995140746235847	0.291645109653473	0.140429332852364	-0.0706163644790649	0.299439072608948	0.115289822220802	-0.0939301773905754	0.314107030630112	0.142198413610458	-0.142461523413658	0.3308345079422	0.0832584649324417	-0.142824947834015	0.319249957799911	0.106801584362984	-0.14063261449337	0.342533320188522	0.106225654482841	
1612	12.585937	-0.0921666100621223	0.289301037788391	0.140798434615135	-0.063511498272419	0.297619611024857	0.115553013980389	-0.0869971588253975	0.311877012252808	0.142516747117043	-0.135949835181236	0.327624082565308	0.0837116688489914	-0.136119097471237	0.316047102212906	0.107260666787624	-0.134407639503479	0.339330285787582	0.106719337403774	
1613	12.59375	-0.0846990495920181	0.287024289369583	0.140934199094772	-0.0562541894614697	0.295857399702072	0.115622140467167	-0.0799063593149185	0.309679627418518	0.142678782343864	-0.129399314522743	0.324482262134552	0.08407361805439	-0.129168376326561	0.312923282384872	0.107598803937435	-0.127946227788925	0.336158663034439	0.107105195522308	
1614	12.601562	-0.0770679488778114	0.284821510314941	0.140988186001778	-0.0488841086626053	0.294244796037674	0.115528978407383	-0.0726422071456909	0.307591944932938	0.142719686031342	-0.122612781822681	0.321422904729843	0.0842816829681396	-0.12217166274786	0.309893608093262	0.107798531651497	-0.121383972465992	0.333152085542679	0.107299253344536	
1615	12.609375	-0.0693113878369331	0.282813131809235	0.14082595705986	-0.0413624867796898	0.292811840772629	0.115413270890713	-0.0653403177857399	0.305694401264191	0.142662227153778	-0.115754581987858	0.318489909172058	0.0843711867928505	-0.114930868148804	0.307002365589142	0.107846915721893	-0.114524878561497	0.330253124237061	0.107384867966175	
1616	12.617187	-0.0613554455339909	0.280959606170654	0.140654742717743	-0.0337132550776005	0.291550785303116	0.115132384002209	-0.0578366927802563	0.303882509469986	0.142444252967834	-0.108657784759998	0.315786987543106	0.0843606740236282	-0.107643559575081	0.304320931434631	0.10783576220274	-0.107593901455402	0.327479422092438	0.107341729104519	
1617	12.625	-0.0533621981739998	0.27926304936409	0.140347361564636	-0.0260073617100716	0.290443778038025	0.114792734384537	-0.050269216299057	0.302268236875534	0.142133444547653	-0.101526260375977	0.313209891319275	0.0842115357518196	-0.100219532847404	0.301662176847458	0.10762532055378	-0.100714311003685	0.324816763401031	0.107186645269394	
1618	12.632812	-0.0453404374420643	0.277805060148239	0.139820650219917	-0.0182670727372169	0.289554327726364	0.114274054765701	-0.042653389275074	0.300836652517319	0.14173187315464	-0.0942725390195847	0.310824602842331	0.0839571729302406	-0.0928420796990395	0.299287050962448	0.107323721051216	-0.0935445427894592	0.322400569915771	0.106925457715988	
1619	12.640625	-0.0372289419174194	0.276539355516434	0.139300122857094	-0.010429291985929	0.288882851600647	0.113716669380665	-0.0350093208253384	0.299612790346146	0.141227930784225	-0.0871247053146362	0.308551996946335	0.0835162922739983	-0.0851041004061699	0.296970814466476	0.106747999787331	-0.0864491835236549	0.320242255926132	0.106544062495232	
1620	12.648437	-0.0291378200054169	0.275526881217957	0.138645365834236	-0.00266889785416424	0.288425177335739	0.112963952124119	-0.0273405443876982	0.298629850149155	0.140639826655388	-0.0797018185257912	0.306623190641403	0.0830733180046082	-0.0774449333548546	0.295089185237885	0.106229767203331	-0.0792464688420296	0.318256616592407	0.106033898890018	
1621	12.65625	-0.0209896862506866	0.274735152721405	0.137947469949722	0.00514354603365064	0.288255631923676	0.112248457968235	-0.0195992179214954	0.297852963209152	0.139993339776993	-0.0723188072443008	0.305010110139847	0.0825141668319702	-0.0697745755314827	0.29340398311615	0.105665296316147	-0.0719328820705414	0.316473811864853	0.105525523424149	
1622	12.664062	-0.0128583814948797	0.274232923984528	0.137243926525116	0.0129961734637618	0.28831160068512	0.111555337905884	-0.0119148073717952	0.297362595796585	0.139348462224007	-0.0648117884993553	0.303587585687637	0.0819494649767876	-0.0620485320687294	0.292040854692459	0.105037853121758	-0.0646827071905136	0.315049082040787	0.104980126023293	
1623	12.671875	-0.00473282113671303	0.273926794528961	0.136454313993454	0.0207801088690758	0.288594931364059	0.110778912901878	-0.0042530563659966	0.297056615352631	0.138662993907928	-0.0572339445352554	0.302457481622696	0.0813400000333786	-0.054304264485836	0.290897279977798	0.104407332837582	-0.0573191717267036	0.313827842473984	0.104451060295105	
1624	12.679687	0.00335404626093805	0.273875534534454	0.135744288563728	0.028552170842886	0.289014339447021	0.110080540180206	0.00343558029271662	0.297010272741318	0.137985110282898	-0.049837127327919	0.301492124795914	0.0806816816329956	-0.0464952178299427	0.289961040019989	0.103705868124962	-0.050074826925993	0.312760978937149	0.103887379169464	
1625	12.6875	0.0113927349448204	0.2740198969841	0.134961813688278	0.0363353379070759	0.289741992950439	0.109472885727882	0.0110405748710036	0.297132462263107	0.137313887476921	-0.042234979569912	0.300809741020203	0.0800548270344734	-0.0388768389821053	0.289260268211365	0.102975532412529	-0.0427534282207489	0.312017649412155	0.10329882055521	
1626	12.695312	0.0192921794950962	0.274394899606705	0.134288892149925	0.0440046340227127	0.29059174656868	0.108797021210194	0.0185525007545948	0.297453224658966	0.136658802628517	-0.034745842218399	0.300293773412704	0.079407200217247	-0.0313134640455246	0.288775533437729	0.102260760962963	-0.0354772061109543	0.311430633068085	0.102707177400589	
1627	12.703125	0.0271010026335716	0.274998933076859	0.133564859628677	0.051620326936245	0.291648834943771	0.108421340584755	0.0260255988687277	0.298013031482697	0.136087596416473	-0.0273959822952747	0.299961775541306	0.0787585824728012	-0.0236774049699306	0.28849869966507	0.101532936096191	-0.0283313822001219	0.311033844947815	0.102107100188732	
1628	12.710937	0.034998320043087	0.275707274675369	0.133083805441856	0.0592236742377281	0.292841702699661	0.107952982187271	0.0333977192640305	0.298712879419327	0.135523319244385	-0.0199163239449263	0.299829632043839	0.0781227126717567	-0.0162474028766155	0.28845801949501	0.100834973156452	-0.0210718177258968	0.310859501361847	0.10151756554842	
1629	12.71875	0.0426650494337082	0.276669293642044	0.13251143693924	0.066656231880188	0.294252634048462	0.107468254864216	0.0407273955643177	0.299633830785751	0.135031074285507	-0.0124838668853045	0.299961805343628	0.0775664001703262	-0.00863597635179758	0.288624078035355	0.100186228752136	-0.0139596192166209	0.31082621216774	0.100980639457703	
1630	12.726562	0.0502517484128475	0.277771919965744	0.131977453827858	0.0740038529038429	0.29580482840538	0.107048600912094	0.0479567535221577	0.30072495341301	0.134567618370056	-0.0052261333912611	0.300237983465195	0.0770643502473831	-0.000307611131574959	0.288907617330551	0.100168094038963	-0.00682184938341379	0.311050683259964	0.100501738488674	
1631	12.734375	0.0577164143323898	0.279085785150528	0.131557658314705	0.0812179669737816	0.297563016414642	0.106673769652843	0.0550042986869812	0.301973313093185	0.134166181087494	0.00223750807344913	0.300766944885254	0.0770048499107361	0.00696744536980987	0.289344936609268	0.0998524576425552	0.000217353372136131	0.311393946409225	0.100243672728539	
1632	12.742187	0.0650042593479156	0.2806057035923	0.131173178553581	0.0881802663207054	0.29944697022438	0.1062917932868	0.0619680695235729	0.303368002176285	0.133778423070908	0.00912428367882967	0.301360666751862	0.07655368745327	0.0142750106751919	0.290117144584656	0.0993470028042793	0.00689734565094113	0.311888009309769	0.0997148528695107	
1633	12.75	0.0719309598207474	0.282146543264389	0.130367919802666	0.0948483496904373	0.30138486623764	0.105704061686993	0.0687439516186714	0.304951876401901	0.133448585867882	0.0159185212105513	0.302102565765381	0.0762732699513435	0.0211372580379248	0.290916472673416	0.0989896804094315	0.0135378893464804	0.312619686126709	0.0994257256388664	
1634	12.757812	0.0788868591189384	0.283916145563126	0.130092591047287	0.101493753492832	0.30353170633316	0.10533856600523	0.0753698572516441	0.306665986776352	0.133167520165443	0.0224941074848175	0.303032755851746	0.07601547986269	0.0279049351811409	0.29193589091301	0.0987689197063446	0.020014988258481	0.313546121120453	0.099216915667057	
